HIERARCHY
ROOT Hips
{
	OFFSET -0.001795 -0.223333 0.028219
	CHANNELS 6 Xposition Yposition Zposition Zrotation Yrotation Xrotation 
	JOINT LeftUpLeg
	{
		OFFSET 0.069520 -0.091406 -0.006815
		CHANNELS 3 Zrotation Yrotation Xrotation
		JOINT LeftLeg
		{
			OFFSET 0.034277 -0.375199 -0.004496
			CHANNELS 3 Zrotation Yrotation Xrotation
			JOINT LeftFoot
			{
				OFFSET -0.013596 -0.397961 -0.043693
				CHANNELS 3 Zrotation Yrotation Xrotation
				JOINT LeftToe
				{
					OFFSET 0.026358 -0.055791 0.119288
					CHANNELS 3 Zrotation Yrotation Xrotation
					End Site
					{
						OFFSET 0.000000 0.000000 0.000000
					}
				}
			}
		}
	}
	JOINT RightUpLeg
	{
		OFFSET -0.067670 -0.090522 -0.004320
		CHANNELS 3 Zrotation Yrotation Xrotation
		JOINT RightLeg
		{
			OFFSET -0.038290 -0.382569 -0.008850
			CHANNELS 3 Zrotation Yrotation Xrotation
			JOINT RightFoot
			{
				OFFSET 0.015774 -0.398415 -0.042312
				CHANNELS 3 Zrotation Yrotation Xrotation
				JOINT RightToe
				{
					OFFSET -0.025372 -0.048144 0.123348
					CHANNELS 3 Zrotation Yrotation Xrotation
					End Site
					{
						OFFSET 0.000000 0.000000 0.000000
					}
				}
			}
		}
	}
	JOINT Spine
	{
		OFFSET -0.002533 0.108963 -0.026696
		CHANNELS 3 Zrotation Yrotation Xrotation
		JOINT Spine1
		{
			OFFSET 0.005487 0.135180 0.001092
			CHANNELS 3 Zrotation Yrotation Xrotation
			JOINT Spine2
			{
				OFFSET 0.001457 0.052922 0.025425
				CHANNELS 3 Zrotation Yrotation Xrotation
				JOINT Neck
				{
					OFFSET -0.002778 0.213870 -0.042857
					CHANNELS 3 Zrotation Yrotation Xrotation
					JOINT Head
					{
						OFFSET 0.005152 0.064970 0.051349
						CHANNELS 3 Zrotation Yrotation Xrotation
						End Site
						{
							OFFSET 0.000000 0.000000 0.000000
						}
					}
				}
				JOINT LeftShoulder
				{
					OFFSET 0.078845 0.121749 -0.034090
					CHANNELS 3 Zrotation Yrotation Xrotation
					JOINT LeftArm
					{
						OFFSET 0.090977 0.030469 -0.008868
						CHANNELS 3 Zrotation Yrotation Xrotation
						JOINT LeftForeArm
						{
							OFFSET 0.259612 -0.012772 -0.027456
							CHANNELS 3 Zrotation Yrotation Xrotation
							JOINT LeftHand
							{
								OFFSET 0.249234 0.008986 -0.001171
								CHANNELS 3 Zrotation Yrotation Xrotation
								End Site
								{
									OFFSET 0.000000 0.000000 0.000000
								}
							}
						}
					}
				}
				JOINT RightShoulder
				{
					OFFSET -0.081759 0.118833 -0.038615
					CHANNELS 3 Zrotation Yrotation Xrotation
					JOINT RightArm
					{
						OFFSET -0.096012 0.032551 -0.009143
						CHANNELS 3 Zrotation Yrotation Xrotation
						JOINT RightForeArm
						{
							OFFSET -0.253742 -0.013329 -0.021401
							CHANNELS 3 Zrotation Yrotation Xrotation
							JOINT RightHand
							{
								OFFSET -0.255298 0.007772 -0.005559
								CHANNELS 3 Zrotation Yrotation Xrotation
								End Site
								{
									OFFSET 0.000000 0.000000 0.000000
								}
							}
						}
					}
				}
			}
		}
	}
}
MOTION
Frames: 6
Frame Time: 0.050000
0.001005 0.952564 -0.035481 -2.998148 -8.136797 6.101896 8.184690 0.074934 4.142498 0.421022 0.467804 -11.779950 4.946817 12.273658 16.779412 0.000000 0.000000 0.000000 -0.119509 -0.168861 1.806209 0.866885 -0.338821 -10.659558 0.169117 -8.157962 18.918515 0.000000 0.000000 0.000000 0.762080 0.163596 -3.297750 3.093977 0.345098 -31.924005 -2.557237 8.773174 28.859608 13.994584 -5.495578 -28.097542 0.000000 0.000000 0.000000 -19.691915 6.321278 -5.468946 -49.209308 -7.476821 -5.012946 -15.772558 -28.157109 5.324388 0.000000 0.000000 0.000000 -37.485484 0.312564 -0.156655 -10.782129 24.952026 -2.439661 -71.086746 -1.189406 3.041293 0.000000 0.000000 0.000000 
0.000506 0.952675 -0.036050 -3.065279 -8.468845 6.214025 8.280491 0.071526 3.911252 0.350513 0.449637 -11.375073 5.167127 12.549989 16.666631 0.000000 0.000000 0.000000 -0.166398 -0.150513 1.641292 1.018622 -0.331563 -10.513017 0.130036 -8.224268 18.746533 0.000000 0.000000 0.000000 0.961419 0.180883 -3.563391 2.967740 0.348244 -31.680034 -2.498007 9.025627 28.902750 14.052590 -5.551847 -27.978503 0.000000 0.000000 0.000000 -19.625985 6.108673 -5.340374 -49.105146 -7.711193 -4.920304 -15.162728 -28.626944 5.258778 0.000000 0.000000 0.000000 -37.519655 0.580135 -0.162941 -10.605952 25.117106 -2.441969 -69.896066 -1.088174 2.927615 0.000000 0.000000 0.000000 
0.000065 0.952711 -0.036649 -3.001183 -8.624909 6.358739 8.222925 0.067635 3.686015 0.285182 0.442798 -11.197408 5.301435 12.722119 16.574481 0.000000 0.000000 0.000000 -0.381861 -0.118492 1.445625 1.279308 -0.327965 -10.535154 0.033085 -8.427471 18.829015 0.000000 0.000000 0.000000 0.944695 0.189076 -3.695833 2.986487 0.342957 -31.623101 -2.456919 9.121817 29.025906 13.795186 -5.439211 -27.835452 0.000000 0.000000 0.000000 -19.870345 6.081542 -5.363696 -48.772065 -7.932654 -4.815223 -15.074977 -29.160800 5.343891 0.000000 0.000000 0.000000 -37.780087 0.781538 -0.163728 -10.444829 25.087965 -2.418276 -69.347939 -0.759453 2.693003 0.000000 0.000000 0.000000 
-0.000321 0.952887 -0.037286 -3.026392 -8.785375 6.534696 8.239901 0.059436 3.379071 0.262339 0.423757 -10.806879 5.419109 12.863364 16.441173 0.000000 0.000000 0.000000 -0.388922 -0.087944 1.107658 1.353000 -0.324800 -10.502078 -0.177930 -8.781568 18.782223 0.000000 0.000000 0.000000 1.014964 0.203381 -3.907245 2.979920 0.341935 -31.622491 -2.385750 9.185183 29.221388 13.605807 -5.386020 -27.653082 0.000000 0.000000 0.000000 -20.054014 6.224832 -5.458403 -48.671641 -8.119206 -4.754486 -14.980324 -29.758205 5.447425 0.000000 0.000000 0.000000 -37.943247 1.028550 -0.167174 -10.057286 25.110512 -2.381576 -69.570620 -0.301033 2.394421 0.000000 0.000000 0.000000 
-0.000706 0.952936 -0.037951 -2.995596 -8.601030 6.644451 8.368631 0.041728 3.103092 0.000113 0.421585 -10.636426 5.453246 12.924159 16.312677 0.000000 0.000000 0.000000 -0.439870 -0.074209 0.987457 1.451747 -0.327096 -10.557022 -0.249784 -8.848177 18.724673 0.000000 0.000000 0.000000 1.062177 0.204027 -3.926026 2.892125 0.370241 -31.817382 -2.331468 9.205078 29.368284 13.454833 -5.241764 -27.862073 0.000000 0.000000 0.000000 -19.892926 6.264467 -5.485725 -48.489513 -8.251727 -4.692132 -15.471245 -30.538182 5.725984 0.000000 0.000000 0.000000 -37.691480 1.246647 -0.217197 -9.609757 25.040712 -2.309288 -70.950802 0.107103 2.248982 0.000000 0.000000 0.000000 
-0.001108 0.953069 -0.038608 -3.013414 -8.504772 6.685438 8.400467 0.033756 2.928807 0.033376 0.409218 -10.418412 5.251110 12.613115 16.149530 0.000000 0.000000 0.000000 -0.365799 -0.066942 0.853856 1.498934 -0.327531 -10.519981 -0.348792 -8.995507 18.729143 0.000000 0.000000 0.000000 1.237527 0.210777 -4.015924 2.803298 0.381479 -31.805552 -2.318125 9.310043 29.393448 13.423484 -5.223827 -27.758004 0.000000 0.000000 0.000000 -19.725170 6.386943 -5.564980 -48.146275 -8.150053 -4.695669 -16.082187 -31.281385 6.030807 0.000000 0.000000 0.000000 -37.279008 1.504675 -0.260932 -9.087945 25.235361 -2.266290 -72.898877 0.302413 2.272074 0.000000 0.000000 0.000000 
